<svg width="19" height="19" viewBox="0 0 19 19" fill="none" xmlns="http://www.w3.org/2000/svg">
<path d="M3.14447 11.7504C2.85032 11.7504 2.60262 11.6498 2.40136 11.4486C2.20784 11.2396 2.11108 10.9841 2.11108 10.6822C2.11108 10.3726 2.20784 10.1172 2.40136 9.91589C2.60262 9.70689 2.85032 9.60239 3.14447 9.60239C3.43862 9.60239 3.68245 9.70689 3.87597 9.91589C4.07723 10.1172 4.17786 10.3726 4.17786 10.6822C4.17786 10.9841 4.07723 11.2396 3.87597 11.4486C3.68245 11.6498 3.43862 11.7504 3.14447 11.7504Z" fill="currentColor"/>
<path d="M7.9492 11.7504C7.55443 11.7504 7.19448 11.6692 6.86937 11.5066C6.54426 11.3363 6.26559 11.0886 6.03337 10.7635C5.80889 10.4384 5.63085 10.0359 5.49926 9.55595C5.37541 9.07602 5.31348 8.52256 5.31348 7.89556C5.31348 7.26856 5.37541 6.71896 5.49926 6.24678C5.63085 5.77459 5.80889 5.37982 6.03337 5.06245C6.26559 4.73734 6.54426 4.49737 6.86937 4.34256C7.19448 4.18 7.55443 4.09872 7.9492 4.09872C8.34398 4.09872 8.70393 4.18 9.02904 4.34256C9.35415 4.49737 9.62895 4.73734 9.85343 5.06245C10.0856 5.37982 10.2637 5.77459 10.3875 6.24678C10.5191 6.71896 10.5849 7.26856 10.5849 7.89556C10.5849 8.52256 10.5191 9.07602 10.3875 9.55595C10.2637 10.0359 10.0856 10.4384 9.85343 10.7635C9.62895 11.0886 9.35415 11.3363 9.02904 11.5066C8.70393 11.6692 8.34398 11.7504 7.9492 11.7504ZM7.9492 10.4268C8.09628 10.4268 8.23174 10.3919 8.35559 10.3223C8.47945 10.2449 8.58782 10.1094 8.68071 9.91589C8.77359 9.72237 8.84326 9.46306 8.88971 9.13795C8.94389 8.81284 8.97098 8.39871 8.97098 7.89556C8.97098 7.39241 8.94389 6.98215 8.88971 6.66478C8.84326 6.33967 8.77359 6.08809 8.68071 5.91006C8.58782 5.72428 8.47945 5.59656 8.35559 5.52689C8.23174 5.45722 8.09628 5.42239 7.9492 5.42239C7.80987 5.42239 7.67828 5.45722 7.55443 5.52689C7.43058 5.59656 7.32221 5.72428 7.22932 5.91006C7.13643 6.08809 7.06289 6.33967 7.00871 6.66478C6.95452 6.98215 6.92743 7.39241 6.92743 7.89556C6.92743 8.39871 6.95452 8.81284 7.00871 9.13795C7.06289 9.46306 7.13643 9.72237 7.22932 9.91589C7.32221 10.1094 7.43058 10.2449 7.55443 10.3223C7.67828 10.3919 7.80987 10.4268 7.9492 10.4268Z" fill="currentColor"/>
<path d="M14.0836 11.7504C13.6888 11.7504 13.3289 11.6692 13.0038 11.5066C12.6786 11.3363 12.4 11.0886 12.1678 10.7635C11.9433 10.4384 11.7652 10.0359 11.6336 9.55595C11.5098 9.07602 11.4479 8.52256 11.4479 7.89556C11.4479 7.26856 11.5098 6.71896 11.6336 6.24678C11.7652 5.77459 11.9433 5.37982 12.1678 5.06245C12.4 4.73734 12.6786 4.49737 13.0038 4.34256C13.3289 4.18 13.6888 4.09872 14.0836 4.09872C14.4784 4.09872 14.8383 4.18 15.1634 4.34256C15.4885 4.49737 15.7633 4.73734 15.9878 5.06245C16.22 5.37982 16.3981 5.77459 16.5219 6.24678C16.6535 6.71896 16.7193 7.26856 16.7193 7.89556C16.7193 8.52256 16.6535 9.07602 16.5219 9.55595C16.3981 10.0359 16.22 10.4384 15.9878 10.7635C15.7633 11.0886 15.4885 11.3363 15.1634 11.5066C14.8383 11.6692 14.4784 11.7504 14.0836 11.7504ZM14.0836 10.4268C14.2307 10.4268 14.3661 10.3919 14.49 10.3223C14.6138 10.2449 14.7222 10.1094 14.8151 9.91589C14.908 9.72237 14.9776 9.46306 15.0241 9.13795C15.0783 8.81284 15.1054 8.39871 15.1054 7.89556C15.1054 7.39241 15.0783 6.98215 15.0241 6.66478C14.9776 6.33967 14.908 6.08809 14.8151 5.91006C14.7222 5.72428 14.6138 5.59656 14.49 5.52689C14.3661 5.45722 14.2307 5.42239 14.0836 5.42239C13.9443 5.42239 13.8127 5.45722 13.6888 5.52689C13.565 5.59656 13.4566 5.72428 13.3637 5.91006C13.2708 6.08809 13.1973 6.33967 13.1431 6.66478C13.0889 6.98215 13.0618 7.39241 13.0618 7.89556C13.0618 8.39871 13.0889 8.81284 13.1431 9.13795C13.1973 9.46306 13.2708 9.72237 13.3637 9.91589C13.4566 10.1094 13.565 10.2449 13.6888 10.3223C13.8127 10.3919 13.9443 10.4268 14.0836 10.4268Z" fill="currentColor"/>
<path d="M13.9716 15.7792H7.40081C7.25659 15.7792 7.13967 15.6623 7.13967 15.5181V14.2994C7.13967 14.1552 7.25659 14.0383 7.40081 14.0383H13.9716V13.036C13.9716 12.5707 14.5341 12.3376 14.8631 12.6667L16.7359 14.5394C16.9399 14.7434 16.9399 15.0741 16.7359 15.2781L14.8631 17.1508C14.5341 17.4799 13.9716 17.2468 13.9716 16.7815V15.7792Z" fill="currentColor"/>
</svg>
