<svg width="19" height="19" viewBox="0 0 19 19" fill="none" xmlns="http://www.w3.org/2000/svg">
<path d="M10.057 15.7792H16.6278C16.772 15.7792 16.8889 15.6623 16.8889 15.5181V14.2994C16.8889 14.1552 16.772 14.0383 16.6278 14.0383H10.057V13.036C10.057 12.5707 9.49445 12.3376 9.16542 12.6667L7.29263 14.5394C7.08866 14.7434 7.08866 15.0741 7.29263 15.2781L9.16542 17.1508C9.49443 17.4799 10.057 17.2468 10.057 16.7815V15.7792Z" fill="currentColor"/>
<path d="M3.14447 11.7504C2.85032 11.7504 2.60262 11.6498 2.40136 11.4486C2.20784 11.2396 2.11108 10.9841 2.11108 10.6822C2.11108 10.3726 2.20784 10.1172 2.40136 9.91589C2.60262 9.70689 2.85032 9.60239 3.14447 9.60239C3.43862 9.60239 3.68245 9.70689 3.87597 9.91589C4.07723 10.1172 4.17786 10.3726 4.17786 10.6822C4.17786 10.9841 4.07723 11.2396 3.87597 11.4486C3.68245 11.6498 3.43862 11.7504 3.14447 11.7504Z" fill="currentColor"/>
<path d="M7.9492 11.7504C7.55443 11.7504 7.19448 11.6692 6.86937 11.5066C6.54426 11.3363 6.26559 11.0886 6.03337 10.7635C5.80889 10.4384 5.63085 10.0359 5.49926 9.55595C5.37541 9.07602 5.31348 8.52256 5.31348 7.89556C5.31348 7.26856 5.37541 6.71896 5.49926 6.24678C5.63085 5.77459 5.80889 5.37982 6.03337 5.06245C6.26559 4.73734 6.54426 4.49737 6.86937 4.34256C7.19448 4.18 7.55443 4.09872 7.9492 4.09872C8.34398 4.09872 8.70393 4.18 9.02904 4.34256C9.35415 4.49737 9.62895 4.73734 9.85343 5.06245C10.0856 5.37982 10.2637 5.77459 10.3875 6.24678C10.5191 6.71896 10.5849 7.26856 10.5849 7.89556C10.5849 8.52256 10.5191 9.07602 10.3875 9.55595C10.2637 10.0359 10.0856 10.4384 9.85343 10.7635C9.62895 11.0886 9.35415 11.3363 9.02904 11.5066C8.70393 11.6692 8.34398 11.7504 7.9492 11.7504ZM7.9492 10.4268C8.09628 10.4268 8.23174 10.3919 8.35559 10.3223C8.47945 10.2449 8.58782 10.1094 8.68071 9.91589C8.77359 9.72237 8.84326 9.46306 8.88971 9.13795C8.94389 8.81284 8.97098 8.39871 8.97098 7.89556C8.97098 7.39241 8.94389 6.98215 8.88971 6.66478C8.84326 6.33967 8.77359 6.08809 8.68071 5.91006C8.58782 5.72428 8.47945 5.59656 8.35559 5.52689C8.23174 5.45722 8.09628 5.42239 7.9492 5.42239C7.80987 5.42239 7.67828 5.45722 7.55443 5.52689C7.43058 5.59656 7.32221 5.72428 7.22932 5.91006C7.13643 6.08809 7.06289 6.33967 7.00871 6.66478C6.95452 6.98215 6.92743 7.39241 6.92743 7.89556C6.92743 8.39871 6.95452 8.81284 7.00871 9.13795C7.06289 9.46306 7.13643 9.72237 7.22932 9.91589C7.32221 10.1094 7.43058 10.2449 7.55443 10.3223C7.67828 10.3919 7.80987 10.4268 7.9492 10.4268Z" fill="currentColor"/>
</svg>
