<svg xmlns="http://www.w3.org/2000/svg" width="35" height="36" fill="none">
  <rect width="34" height="34" x=".5" y="1" fill="url(#a)" rx="4.5"/>
  <g filter="url(#b)">
    <path fill="url(#c)" fill-rule="evenodd" d="M11.5 10.5a.5.5 0 0 0-.5.5v5.72a.5.5 0 0 0 .5.5h12.714a.5.5 0 0 0 .5-.5V11a.5.5 0 0 0-.5-.5H11.5Zm6.857 9.28a.5.5 0 0 0-.5.5V26a.5.5 0 0 0 .5.5h5.857a.5.5 0 0 0 .5-.5v-5.72a.5.5 0 0 0-.5-.5h-5.857Z" clip-rule="evenodd"/>
  </g>
  <rect width="34" height="34" x=".5" y="1" stroke="#343855" rx="4.5"/>
  <defs>
    <linearGradient id="a" x1="17.5" x2="17.5" y1=".5" y2="35.5" gradientUnits="userSpaceOnUse">
      <stop stop-color="#292C42"/>
      <stop offset="1" stop-color="#1F2236"/>
    </linearGradient>
    <linearGradient id="c" x1="17.857" x2="17.857" y1="10.5" y2="26.5" gradientUnits="userSpaceOnUse">
      <stop stop-color="#72ED79"/>
      <stop offset="1" stop-color="#53CD5A"/>
    </linearGradient>
    <filter id="b" width="15.714" height="19" x="10" y="10.5" color-interpolation-filters="sRGB" filterUnits="userSpaceOnUse">
      <feFlood flood-opacity="0" result="BackgroundImageFix"/>
      <feColorMatrix in="SourceAlpha" result="hardAlpha" values="0 0 0 0 0 0 0 0 0 0 0 0 0 0 0 0 0 0 127 0"/>
      <feOffset dy="2"/>
      <feGaussianBlur stdDeviation=".5"/>
      <feComposite in2="hardAlpha" operator="out"/>
      <feColorMatrix values="0 0 0 0 0 0 0 0 0 0 0 0 0 0 0 0 0 0 0.15 0"/>
      <feBlend in2="BackgroundImageFix" result="effect1_dropShadow_116_4750"/>
      <feBlend in="SourceGraphic" in2="effect1_dropShadow_116_4750" result="shape"/>
    </filter>
  </defs>
</svg>