<svg xmlns="http://www.w3.org/2000/svg" width="331" height="235" fill="none">
  <g fill="#fff" clip-path="url(#a)">
    <path d="m289.351 108.596-70.681 18.939-11.859-44.257 70.682-18.94 11.858 44.258Zm-70.239 18.173 69.473-18.615-11.535-43.05-69.473 18.616 11.535 43.049Z"/>
    <path d="m250.14 103.617-43.076-19.834.262-.568 42.604 19.617 27.088-38.29.51.36-27.388 38.715Z"/>
    <path d="m255.78 95.24.236-.58 33.077 13.431-.235.579-33.078-13.43Zm-37.141 31.714 21.926-28.172.493.383-21.926 28.173-.493-.384ZM235.581 163.988l-47.341 12.685-7.963-29.717 47.342-12.686 7.962 29.718Zm-46.899 11.92 46.134-12.362-7.64-28.51-46.133 12.362 7.639 28.51Z"/>
    <path d="m209.337 160.725-28.808-13.265.262-.568 28.335 13.047 18.016-25.467.511.362-18.316 25.891Z"/>
    <path d="m213.026 155.106.235-.579 22.061 8.957-.235.58-22.061-8.958Zm-24.815 20.985 14.624-18.79.493.385-14.623 18.789-.494-.384ZM194.156 77.536l-47.342 12.686-7.962-29.719 47.341-12.685 7.963 29.718Zm-46.899 11.92 46.133-12.362-7.639-28.51-46.134 12.361 7.64 28.51Z"/>
    <path d="m167.912 74.273-28.808-13.265.262-.568 28.335 13.047 18.016-25.467.511.362-18.316 25.89Z"/>
    <path d="m171.6 68.651.236-.58 22.06 8.958-.235.58L171.6 68.65Zm-24.815 20.992 14.623-18.79.494.384-14.624 18.79-.493-.384Zm115.057-38 2.802 3.848 4.734.502-3.849 2.801-.502 4.734-2.802-3.847-4.733-.503 3.849-2.802.501-4.734Zm-26.827 74.472 2.382 3.273 4.026.427-3.273 2.382-.427 4.026-2.383-3.272-4.025-.428 3.273-2.382.427-4.026Zm-55.441 48.311 1.867 2.566 3.156.334-2.566 1.867-.334 3.155-1.868-2.564-3.154-.335 2.565-1.867.334-3.156Zm11.228-93.303 1.918 2.635 3.24.343-2.635 1.918-.343 3.24-1.918-2.633-3.24-.345 2.635-1.918.343-3.24Zm-51.325-29.7 1.365 1.877 2.308.244-1.876 1.365-.245 2.307-1.366-1.874-2.306-.246 1.876-1.365.244-2.308Zm6.011 63.369 1.365 1.876 2.307.244-1.876 1.366-.244 2.307-1.366-1.875-2.306-.246 1.875-1.365.245-2.307Zm-31.825 38.869 1.366 1.876 2.307.245-1.876 1.365-.244 2.307-1.366-1.875-2.307-.245 1.876-1.365.244-2.308Zm-39.47-42.103 1.365 1.876 2.307.244-1.876 1.365-.245 2.308-1.365-1.875-2.307-.246 1.876-1.365.244-2.307Zm-30.65 55.909 3.253-.872.162.604-3.254.872-.162-.604Zm13.891-3.723 11.473-3.074.162.604-11.473 3.074-.162-.604Zm18.773-5.03 135.68-36.355.162.604-135.68 36.355-.162-.604Zm-19.934-28.753 4.11-1.101.162.604-4.11 1.101-.163-.604Zm21.32-5.712 20.153-5.4.162.604-20.153 5.4-.162-.604Zm30.848-8.266 94.923-25.434.161.603-94.922 25.435-.162-.604Zm3.8 62.575 4.655-1.248.162.604-4.656 1.248-.161-.604Zm14.342-3.843 51.661-13.843.162.604-51.661 13.843-.162-.604ZM72.357 94.657l4.377-1.173.162.604-4.377 1.173-.162-.604Zm14.187-3.801L137.6 77.175l.162.604-51.057 13.68-.162-.603Z"/>
  </g>
  <defs>
    <clipPath id="a">
      <path fill="#fff" d="M-8.52 79.315 288.612-.3l41.645 155.423-297.131 79.616z"/>
    </clipPath>
  </defs>
</svg>