<?xml version="1.0" standalone="no"?>
<!DOCTYPE svg PUBLIC "-//W3C//DTD SVG 20010904//EN"
 "http://www.w3.org/TR/2001/REC-SVG-20010904/DTD/svg10.dtd">
<svg version="1.0" xmlns="http://www.w3.org/2000/svg"
 width="800.000000pt" height="800.000000pt" viewBox="0 0 800.000000 800.000000"
 preserveAspectRatio="xMidYMid meet">
<metadata>
Created by potrace 1.11, written by Peter Selinger 2001-2013
</metadata>
<g transform="translate(0.000000,800.000000) scale(0.100000,-0.100000)"
fill="#000000" stroke="none">
<path d="M640 6321 c0 -1670 0 -1679 20 -1684 11 -3 23 -1 26 4 3 5 9 7 14 4
7 -5 160 -9 183 -5 20 3 179 1 183 -2 2 -3 26 -2 54 2 27 4 50 4 50 1 0 -3 40
-4 90 -1 49 3 100 3 112 0 12 -3 44 -3 70 0 27 4 48 4 48 1 0 -7 179 -4 197 3
7 3 13 2 13 -2 0 -4 36 -5 80 -2 44 3 80 3 80 0 0 -4 97 -4 110 1 3 1 9 1 13
0 10 -2 170 -3 180 -1 20 3 179 1 183 -2 2 -3 26 -2 54 2 27 4 50 4 50 1 0 -7
179 -4 197 3 7 3 13 2 13 -2 0 -4 36 -5 80 -2 44 3 80 3 80 0 0 -4 97 -4 110
1 3 1 9 1 13 0 24 -4 178 -3 182 1 3 3 25 2 49 -2 23 -3 51 -3 62 0 10 4 31 4
46 -1 14 -4 29 -5 32 -2 4 4 28 5 186 2 30 0 60 0 65 1 6 2 14 2 18 1 10 -2
170 -3 180 -1 20 3 169 1 173 -2 2 -3 26 -2 54 2 28 4 52 4 55 2 6 -7 185 -3
195 3 5 3 11 1 14 -3 3 -5 25 -6 48 -3 24 4 56 4 72 1 16 -3 62 -3 102 0 40 3
83 3 96 0 12 -3 44 -3 70 0 27 4 48 4 48 1 0 -7 179 -4 197 3 7 3 13 2 13 -2
0 -4 36 -5 80 -2 44 3 80 3 80 0 0 -4 97 -4 110 1 3 1 9 1 13 0 10 -2 170 -3
180 -1 20 3 179 1 183 -2 2 -3 26 -2 54 2 27 4 50 4 50 1 0 -3 45 -4 101 -1
56 3 103 2 104 -1 2 -3 27 -3 55 1 27 4 52 4 55 2 6 -7 185 -3 195 3 5 3 11 1
15 -5 4 -6 10 -8 15 -5 5 3 35 5 67 5 162 -1 225 0 234 5 5 4 9 3 9 -2 0 -4
36 -6 80 -3 44 3 80 3 80 0 0 -4 97 -4 110 1 3 1 9 1 13 0 11 -2 170 -3 177
-1 17 4 140 4 140 0 0 -3 20 -4 44 -2 l43 4 -1 1676 -1 1677 -3272 3 -3273 2
0 -1679z"/>
<path d="M3927 3358 c-9 -5 -12 -431 -12 -1683 l-1 -1675 1638 0 1637 0 -2
1678 -2 1677 -47 5 c-27 3 -48 3 -48 0 0 -3 -26 -4 -57 -2 -103 4 -233 3 -243
-3 -6 -3 -10 -3 -10 2 0 4 -34 6 -76 3 -42 -3 -78 -2 -80 1 -2 3 -23 3 -46 0
-24 -4 -56 -4 -72 -1 -16 3 -62 3 -102 0 -40 -3 -83 -3 -96 0 -12 3 -44 3 -70
0 -27 -4 -48 -4 -48 -1 0 3 -40 4 -90 1 -49 -3 -100 -3 -112 0 -12 3 -44 3
-70 0 -27 -4 -48 -4 -48 -1 0 3 -45 4 -101 1 -56 -3 -103 -2 -106 3 -2 4 -8 5
-13 2 -5 -3 -35 -5 -67 -5 -162 1 -225 0 -234 -5 -5 -4 -9 -3 -9 2 0 4 -36 6
-80 3 -44 -3 -80 -1 -80 3 0 5 -4 6 -9 3 -8 -5 -37 -6 -204 -6 -48 0 -92 -2
-98 -5 -5 -4 -9 -3 -9 2 0 4 -34 6 -76 3 -42 -3 -78 -2 -80 1 -2 3 -23 3 -46
0 -24 -4 -56 -4 -72 -1 -16 3 -62 3 -102 0 -40 -3 -83 -3 -96 0 -12 3 -44 3
-70 0 -27 -4 -48 -2 -48 2 0 5 -4 7 -9 4 -9 -6 -157 -8 -259 -4 -35 2 -69 0
-75 -4z"/>
</g>
</svg>
