<svg xmlns="http://www.w3.org/2000/svg" width="108" height="13" fill="none">
  <path fill="#fff" fill-rule="evenodd" d="M3.066 3.072h7.665V0H.001v12.8h10.73V9.728H3.066V7.936h6.479V4.864H3.066V3.072ZM76.126 12.8H65.395V0h3.066v9.728h7.665V12.8ZM101.422 3.072A3.325 3.325 0 0 0 98.1 6.4a3.325 3.325 0 0 0 3.322 3.328 3.325 3.325 0 0 0 3.321-3.328 3.325 3.325 0 0 0-3.321-3.328ZM95.034 6.4c0-3.535 2.86-6.4 6.388-6.4s6.388 2.865 6.388 6.4-2.86 6.4-6.388 6.4-6.388-2.865-6.388-6.4ZM52.997 0h3.875l5.217 12.8H58.72l-.746-1.832h-6.08L51.15 12.8H47.78L52.997 0Zm.15 7.896h3.576l-1.788-4.39-1.789 4.39Z" clip-rule="evenodd"/>
  <path fill="url(#a)" fill-rule="evenodd" d="M90.945 0H80.214v5.376h10.731V0Zm0 7.424H85.58V12.8h5.365V7.424Z" clip-rule="evenodd"/>
  <path fill="#fff" fill-rule="evenodd" d="M21.207 3.072A3.325 3.325 0 0 0 17.885 6.4a3.325 3.325 0 0 0 3.322 3.328A3.325 3.325 0 0 0 24.529 6.4a3.325 3.325 0 0 0-3.322-3.328Zm5.457 6.656c.59-.97.93-2.109.93-3.328 0-3.535-2.86-6.4-6.387-6.4-3.528 0-6.388 2.865-6.388 6.4s2.86 6.4 6.388 6.4h6.388V9.728h-.93ZM34.75 0v6.4a3.325 3.325 0 0 0 3.321 3.328A3.325 3.325 0 0 0 41.393 6.4V0h3.066v6.4c0 3.535-2.86 6.4-6.388 6.4-3.527 0-6.387-2.865-6.387-6.4V0h3.066Z" clip-rule="evenodd"/>
  <defs>
    <linearGradient id="a" x1="85.579" x2="85.579" y1="0" y2="12.8" gradientUnits="userSpaceOnUse">
      <stop stop-color="#72ED79"/>
      <stop offset="1" stop-color="#53CD5A"/>
    </linearGradient>
  </defs>
</svg>