<svg xmlns="http://www.w3.org/2000/svg" width="79" height="10" fill="none">
  <path fill="#292C42" fill-rule="evenodd" d="M2.247 2.561h5.617V.311H0V9.69h7.864V7.439H2.247V6.126h4.747V3.875H2.247V2.56ZM55.783 9.69H47.92V.31h2.246V7.44h5.617v2.25ZM74.32 2.561a2.436 2.436 0 0 0-2.435 2.44 2.436 2.436 0 0 0 2.434 2.438A2.436 2.436 0 0 0 76.753 5a2.436 2.436 0 0 0-2.434-2.439Zm-4.682 2.44c0-2.591 2.096-4.69 4.681-4.69S79 2.41 79 5c0 2.59-2.095 4.689-4.68 4.689-2.585 0-4.68-2.1-4.68-4.69ZM38.835.31h2.84l3.822 9.38H43.03l-.547-1.343h-4.455L37.48 9.69h-2.468L38.835.31Zm.11 5.786h2.62l-1.31-3.216-1.31 3.216Z" clip-rule="evenodd"/>
  <path fill="url(#a)" fill-rule="evenodd" d="M66.643.31h-7.864v3.94h7.864V.31Zm0 5.44H62.71v3.94h3.932V5.75Z" clip-rule="evenodd"/>
  <path fill="#292C42" fill-rule="evenodd" d="M15.54 2.561a2.436 2.436 0 0 0-2.434 2.44 2.436 2.436 0 0 0 2.434 2.438A2.436 2.436 0 0 0 17.974 5a2.436 2.436 0 0 0-2.434-2.439Zm4 4.878c.432-.71.68-1.546.68-2.439 0-2.59-2.095-4.69-4.68-4.69-2.585 0-4.68 2.1-4.68 4.69 0 2.59 2.095 4.69 4.68 4.69h4.68V7.439h-.68ZM25.463.31V5a2.436 2.436 0 0 0 2.434 2.439A2.436 2.436 0 0 0 30.331 5V.31h2.247V5c0 2.59-2.096 4.69-4.68 4.69-2.586 0-4.681-2.1-4.681-4.69V.31h2.246Z" clip-rule="evenodd"/>
  <defs>
    <linearGradient id="a" x1="62.711" x2="62.711" y1=".31" y2="9.69" gradientUnits="userSpaceOnUse">
      <stop stop-color="#72ED79"/>
      <stop offset="1" stop-color="#53CD5A"/>
    </linearGradient>
  </defs>
</svg>