<svg width="30" height="30" viewBox="0 0 30 30" fill="none"
  xmlns="http://www.w3.org/2000/svg">
  <rect x="0.5" y="0.5" width="29" height="29" rx="4.5" fill="#0F0F0F"/>
  <path d="M14.0559 7.00005C12.3057 7.00005 10.7508 8.12702 10.2088 9.7904C9.65264 9.90506 9.12723 10.1369 8.66759 10.4704C8.20795 10.8039 7.82461 11.2315 7.54308 11.7247C6.66531 13.2418 6.86575 15.149 8.04168 16.4493C7.67863 17.5385 7.80323 18.7303 8.38303 19.7166C9.25543 21.2391 11.0108 22.0193 12.7285 21.6562C13.1046 22.0807 13.5669 22.4201 14.0845 22.6518C14.6021 22.8835 15.1631 23.0022 15.7302 23C17.4804 23 19.0353 21.873 19.5773 20.2096C20.7043 19.9765 21.6742 19.2721 22.2377 18.2753C23.1208 16.7582 22.9204 14.851 21.7447 13.5507V13.5453C21.924 13.007 21.9863 12.4365 21.9275 11.8721C21.8686 11.3077 21.6899 10.7624 21.4033 10.2727C20.5307 8.75559 18.7752 7.97515 17.063 8.3382C16.6852 7.91485 16.2217 7.57662 15.7033 7.34593C15.1849 7.11523 14.6233 6.99733 14.0559 7.00005ZM14.0559 8.04043L14.0505 8.04581C14.7549 8.04581 15.4323 8.28963 15.9741 8.73946C15.9524 8.75021 15.909 8.77728 15.8765 8.7936L12.6907 10.6304C12.5281 10.7225 12.4305 10.8959 12.4305 11.0856V15.3984L11.0597 14.6074V11.0422C11.0594 10.2469 11.3748 9.48405 11.9366 8.92118C12.4984 8.35831 13.2606 8.04165 14.0559 8.04043ZM17.8938 9.29603C18.4217 9.29502 18.9406 9.4334 19.3979 9.69719C19.8552 9.96098 20.2348 10.3408 20.4983 10.7983C20.845 11.4052 20.975 12.115 20.8557 12.8031C20.8341 12.7868 20.7909 12.7653 20.7636 12.7489L17.5777 10.9066C17.4976 10.8613 17.4071 10.8375 17.315 10.8375C17.2229 10.8375 17.1324 10.8613 17.0523 10.9066L13.3191 13.063V11.4809L16.402 9.69825C16.8553 9.43545 17.3698 9.29666 17.8938 9.29584V9.29603ZM10.014 10.9337V14.721C10.014 14.9107 10.1115 15.0787 10.2741 15.1763L14.0018 17.3273L12.6254 18.1237L9.54783 16.3464C8.86006 15.9478 8.35854 15.2926 8.15337 14.5246C7.9482 13.7567 8.05614 12.9386 8.45349 12.2502C8.80402 11.6426 9.35607 11.177 10.014 10.9337ZM17.1552 11.871L20.2381 13.6482C21.674 14.4772 22.1615 16.3086 21.3325 17.7445L21.3378 17.7499C20.9857 18.3567 20.433 18.8227 19.7773 19.0611V15.2736C19.7773 15.0839 19.6798 14.9105 19.5172 14.8186L15.7842 12.662L17.1552 11.871ZM14.8903 13.1769L16.4617 14.0871V15.9022L14.8903 16.8124L13.3191 15.9022V14.0871L14.8903 13.1769ZM17.361 14.6074L18.7318 15.3984V18.9582C18.7318 20.6162 17.3881 21.96 15.7356 21.96V21.9546C15.0366 21.9546 14.3539 21.7108 13.8175 21.2611C13.8391 21.2504 13.8879 21.2231 13.915 21.2068L17.1008 19.37C17.2635 19.2779 17.3664 19.1045 17.3608 18.9148L17.361 14.6074ZM16.4669 16.9372V18.5192L13.3839 20.2964C11.9481 21.12 10.1167 20.6324 9.28768 19.2019H9.29306C8.94095 18.6004 8.81616 17.8852 8.93538 17.1971C8.95708 17.2134 9.00047 17.2349 9.02754 17.2513L12.2134 19.0936C12.2935 19.1389 12.3841 19.1627 12.4761 19.1627C12.5682 19.1627 12.6587 19.1389 12.7389 19.0936L16.4669 16.9372Z" fill="white"/>
  <rect x="0.5" y="0.5" width="29" height="29" rx="4.5" stroke="#393939"/>
</svg>
